<svg xmlns="http://www.w3.org/2000/svg" xmlns:xlink="http://www.w3.org/1999/xlink" version="1.1" id="Layer_1" x="0px" y="0px" width="100px" height="100px" viewBox="5.0 -10.0 100.0 135.0" enable-background="new 0 0 100 100" xml:space="preserve">
<g>
	<path d="M58.65,18.187c-0.225,0.028-0.45,0.141-0.563,0.338L32.286,56.027c-0.337,0.479,0.084,1.241,0.647,1.241h14.041   l-7.09,23.544c-0.113,0.367,0.084,0.79,0.422,0.931c0.338,0.169,0.76,0.057,0.985-0.254L67.711,43.62   c0.337-0.479-0.057-1.24-0.647-1.24h-14.49l6.922-23.178C59.663,18.694,59.157,18.102,58.65,18.187L58.65,18.187z M56.54,23.572   l-5.796,19.372c-0.141,0.479,0.282,1.015,0.76,1.015h14.068L42.837,76.471l5.965-19.767c0.141-0.479-0.282-1.043-0.76-1.015h-13.59   L56.54,23.572L56.54,23.572z"/>
</g>
<text x="0.0" y="117.5" font-size="5.0" font-weight="bold" font-family="Helvetica Neue, Helvetica, Arial-Unicode, Arial, Sans-serif" fill="#000000">Created by baabullah hasan</text><text x="0.0" y="122.5" font-size="5.0" font-weight="bold" font-family="Helvetica Neue, Helvetica, Arial-Unicode, Arial, Sans-serif" fill="#000000">from the Noun Project</text></svg>